<?xml version="1.0" encoding="utf-8"?>
<!-- Generator: Adobe Illustrator 26.1.0, SVG Export Plug-In . SVG Version: 6.00 Build 0)  -->
<svg version="1.0" id="Layer_1" xmlns="http://www.w3.org/2000/svg" xmlns:xlink="http://www.w3.org/1999/xlink" x="0px" y="0px"
	 viewBox="0 0 1010 400" enable-background="new 0 0 1010 400" xml:space="preserve">
<g>
	<g>
		<path fill="#FFFFFF" d="M459.2,225.4H446c-1.1,0-1.9-0.3-2.4-0.8c-0.5-0.5-0.8-1.3-0.8-2.4v-57.5c0-1.1,0.2-1.9,0.8-2.4
			c0.5-0.5,1.3-0.8,2.4-0.8h14.3c0.9,0,1.7,0.2,2.4,0.6c0.6,0.4,1.2,1.1,1.7,2l8,14.5c0.3,0.5,0.5,0.9,0.8,1.2
			c0.2,0.2,0.5,0.4,0.8,0.4h0.8c0.4,0,0.6-0.1,0.8-0.4c0.2-0.2,0.5-0.6,0.8-1.2l7.9-14.5c0.5-0.9,1.1-1.6,1.7-2
			c0.6-0.4,1.4-0.6,2.4-0.6h14.4c1.1,0,1.9,0.3,2.4,0.8c0.5,0.5,0.8,1.3,0.8,2.4v57.5c0,1.1-0.3,1.9-0.8,2.4
			c-0.5,0.5-1.3,0.8-2.4,0.8H489c-1.1,0-1.9-0.3-2.4-0.8c-0.5-0.5-0.8-1.3-0.8-2.4V191l-5.2,9.7c-0.5,1-1.2,1.7-1.9,2.2
			c-0.7,0.4-1.7,0.7-2.8,0.7h-3.6c-1.1,0-2.1-0.2-2.8-0.7c-0.7-0.4-1.4-1.2-1.9-2.2l-5.2-9.7v31.3c0,1.1-0.3,1.9-0.8,2.4
			C461.1,225.2,460.3,225.4,459.2,225.4z"/>
		<path fill="#FFFFFF" d="M559.9,225.4h-41.2c-1.1,0-1.9-0.3-2.4-0.8c-0.5-0.5-0.8-1.3-0.8-2.4v-57.5c0-1.1,0.2-1.9,0.8-2.4
			c0.5-0.5,1.3-0.8,2.4-0.8h41.2c1.1,0,1.9,0.3,2.4,0.8c0.5,0.5,0.8,1.3,0.8,2.4v10.4c0,1.1-0.3,1.9-0.8,2.4
			c-0.5,0.5-1.3,0.8-2.4,0.8h-24.5v6.8h17.3c1.1,0,1.9,0.3,2.4,0.8c0.5,0.5,0.8,1.3,0.8,2.4v9.5c0,1.1-0.3,1.9-0.8,2.4
			c-0.5,0.5-1.3,0.8-2.4,0.8h-17.3v7.6h24.5c1.1,0,1.9,0.3,2.4,0.8c0.5,0.5,0.8,1.3,0.8,2.4v10.4c0,1.1-0.3,1.9-0.8,2.4
			C561.8,225.2,561,225.4,559.9,225.4z"/>
		<path fill="#FFFFFF" d="M625.3,208.7c0,2.7-0.4,5.2-1.2,7.4c-0.8,2.2-2.2,4.1-4.3,5.7c-2,1.6-4.8,2.8-8.4,3.7
			c-3.6,0.9-8.1,1.3-13.6,1.3c-5.5,0-10-0.4-13.6-1.3c-3.6-0.9-6.3-2.1-8.4-3.7c-2-1.6-3.5-3.5-4.3-5.7c-0.8-2.2-1.2-4.7-1.2-7.4
			v-44c0-1.1,0.2-1.9,0.8-2.4c0.5-0.5,1.3-0.8,2.4-0.8h13.9c1.1,0,1.9,0.3,2.4,0.8c0.5,0.5,0.8,1.3,0.8,2.4v40.5
			c0,1.2,0.4,2.2,1.3,3c0.9,0.8,2.9,1.2,5.9,1.2c3.1,0,5.2-0.4,6-1.2c0.9-0.8,1.3-1.8,1.3-3v-40.5c0-1.1,0.3-1.9,0.8-2.4
			c0.5-0.5,1.3-0.8,2.4-0.8h13.5c1.1,0,1.9,0.3,2.4,0.8c0.5,0.5,0.8,1.3,0.8,2.4V208.7z"/>
		<path fill="#FFFFFF" d="M664.1,225.4h-28.1c-1.1,0-1.9-0.3-2.4-0.8c-0.5-0.5-0.8-1.3-0.8-2.4v-10.4c0-1.1,0.3-1.9,0.8-2.4
			s1.3-0.8,2.4-0.8H660c0.8,0,1.3-0.3,1.7-0.8c0.4-0.5,0.6-1.1,0.6-1.8c0-1-0.2-1.7-0.6-2.2c-0.4-0.5-1-0.7-1.7-0.8l-13.3-1.9
			c-4.1-0.6-7.5-2-10-4.1c-2.5-2.1-3.8-5.7-3.8-10.7v-9.3c0-5,1.6-8.9,4.9-11.6c3.3-2.7,7.8-4,13.5-4h24.9c1.1,0,1.9,0.3,2.4,0.8
			c0.5,0.5,0.8,1.3,0.8,2.4v10.6c0,1.1-0.3,1.9-0.8,2.4c-0.5,0.5-1.3,0.8-2.4,0.8h-20.7c-0.8,0-1.4,0.3-1.8,0.8
			c-0.4,0.5-0.6,1.1-0.6,1.9c0,0.8,0.2,1.4,0.6,2c0.4,0.5,1,0.8,1.8,0.9l13.2,1.8c4.1,0.6,7.5,2,10,4.1c2.5,2.1,3.8,5.7,3.8,10.7
			v9.3c0,5-1.6,8.9-4.9,11.6C674.3,224.1,669.8,225.4,664.1,225.4z"/>
		<path fill="#FFFFFF" d="M740,225.4H710c-1.1,0-1.9-0.3-2.4-0.8c-0.5-0.5-0.8-1.3-0.8-2.4v-57.5c0-1.1,0.2-1.9,0.8-2.4
			c0.5-0.5,1.3-0.8,2.4-0.8H740c7.4,0,12.9,1.5,16.5,4.4c3.6,3,5.4,7.5,5.4,13.7v27.7c0,6.2-1.8,10.7-5.4,13.7
			C752.9,224,747.4,225.4,740,225.4z M727,178.5v30.2h10.6c1.4,0,2.5-0.4,3.2-1.1s1-1.8,1-3.3v-21.6c0-1.5-0.3-2.6-1-3.2
			c-0.7-0.7-1.7-1-3.2-1H727z"/>
		<path fill="#FFFFFF" d="M788.5,222.2c0,1.1-0.3,1.9-0.8,2.4c-0.5,0.5-1.3,0.8-2.4,0.8h-13.1c-1.1,0-1.9-0.3-2.4-0.8
			c-0.5-0.5-0.8-1.3-0.8-2.4v-23.4c0-1.8,0.3-3.8,0.8-6.1c0.6-2.3,1.4-5,2.6-8.1l7.7-20.2c0.4-1,0.9-1.7,1.6-2.2
			c0.7-0.5,1.7-0.7,2.9-0.7h23.9c1.1,0,2.1,0.2,2.8,0.7c0.7,0.5,1.3,1.2,1.6,2.2l7.7,20.2c1.2,3.1,2.1,5.8,2.6,8.1
			c0.6,2.3,0.8,4.3,0.8,6.1v23.4c0,1.1-0.3,1.9-0.8,2.4c-0.5,0.5-1.3,0.8-2.4,0.8h-13.4c-1.2,0-2.1-0.3-2.6-0.8
			c-0.6-0.5-0.8-1.3-0.8-2.4v-12.4h-15.7V222.2z M793.6,180.1l-4.2,13.5h13.9l-4.2-13.5c-0.2-0.5-0.5-0.9-0.8-1.2
			c-0.3-0.2-0.6-0.4-0.9-0.4h-2.2c-0.4,0-0.7,0.1-0.9,0.4C794.1,179.2,793.8,179.6,793.6,180.1z"/>
		<path fill="#FFFFFF" d="M865.7,225.4h-29.9c-1.1,0-1.9-0.3-2.4-0.8c-0.5-0.5-0.8-1.3-0.8-2.4v-57.5c0-1.1,0.2-1.9,0.8-2.4
			c0.5-0.5,1.3-0.8,2.4-0.8h29.9c7.4,0,12.9,1.5,16.5,4.4c3.6,3,5.4,7.5,5.4,13.7v27.7c0,6.2-1.8,10.7-5.4,13.7
			C878.6,224,873.1,225.4,865.7,225.4z M852.7,178.5v30.2h10.6c1.4,0,2.5-0.4,3.2-1.1c0.7-0.7,1-1.8,1-3.3v-21.6
			c0-1.5-0.3-2.6-1-3.2c-0.7-0.7-1.7-1-3.2-1H852.7z"/>
		<path fill="#FFFFFF" d="M950.3,208.7c0,2.7-0.4,5.2-1.2,7.4c-0.8,2.2-2.2,4.1-4.3,5.7c-2,1.6-4.9,2.8-8.4,3.7
			c-3.6,0.9-8.1,1.3-13.6,1.3c-5.5,0-10.1-0.4-13.7-1.3c-3.6-0.9-6.4-2.1-8.5-3.7c-2-1.6-3.5-3.5-4.3-5.7c-0.8-2.2-1.2-4.7-1.2-7.4
			v-30.3c0-2.7,0.4-5.2,1.2-7.4c0.8-2.2,2.2-4.1,4.3-5.7c2-1.6,4.9-2.8,8.5-3.7c3.6-0.9,8.2-1.3,13.7-1.3c5.5,0,10,0.4,13.6,1.3
			c3.6,0.9,6.4,2.1,8.4,3.7c2,1.6,3.5,3.5,4.3,5.7c0.8,2.2,1.2,4.7,1.2,7.4V208.7z M915.4,205.5c0,1.2,0.4,2.2,1.3,3
			c0.9,0.8,2.9,1.2,6.1,1.2c3.2,0,5.2-0.4,6.1-1.2c0.9-0.8,1.3-1.8,1.3-3v-23.9c0-1.1-0.4-2.1-1.3-2.9c-0.9-0.8-2.9-1.2-6.1-1.2
			c-3.2,0-5.2,0.4-6.1,1.2c-0.9,0.8-1.3,1.8-1.3,2.9V205.5z"/>
		<path fill="#FFFFFF" d="M988.6,225.4h-28.1c-1.1,0-1.9-0.3-2.4-0.8c-0.5-0.5-0.8-1.3-0.8-2.4v-10.4c0-1.1,0.3-1.9,0.8-2.4
			c0.5-0.5,1.3-0.8,2.4-0.8h23.9c0.8,0,1.3-0.3,1.7-0.8c0.4-0.5,0.6-1.1,0.6-1.8c0-1-0.2-1.7-0.6-2.2c-0.4-0.5-1-0.7-1.7-0.8
			l-13.3-1.9c-4.1-0.6-7.5-2-10-4.1c-2.5-2.1-3.8-5.7-3.8-10.7v-9.3c0-5,1.6-8.9,4.9-11.6c3.3-2.7,7.8-4,13.5-4h24.9
			c1.1,0,1.9,0.3,2.4,0.8c0.5,0.5,0.8,1.3,0.8,2.4v10.6c0,1.1-0.3,1.9-0.8,2.4c-0.5,0.5-1.3,0.8-2.4,0.8h-20.7
			c-0.8,0-1.4,0.3-1.8,0.8c-0.4,0.5-0.6,1.1-0.6,1.9c0,0.8,0.2,1.4,0.6,2c0.4,0.5,1,0.8,1.8,0.9l13.2,1.8c4.1,0.6,7.5,2,10,4.1
			c2.5,2.1,3.8,5.7,3.8,10.7v9.3c0,5-1.6,8.9-4.9,11.6C998.8,224.1,994.3,225.4,988.6,225.4z"/>
	</g>
	<g>
		<g>
			<g>
				<path fill="#FFFFFF" d="M244.2,171.2h-15.6V216h15.6c2.1,0,3.7-0.5,4.7-1.6c1-1.1,1.5-2.7,1.5-4.9v-32c0-2.2-0.5-3.8-1.5-4.8
					C247.8,171.7,246.3,171.2,244.2,171.2z"/>
			</g>
			<g>
				<g>
					<path fill="#FFFFFF" d="M183.9,2.3C84,2.3,3,83.3,3,183.2c0,99.9,81,180.9,180.9,180.9v33.6c109.2,0,197.7-88.5,197.7-197.7
						C381.6,90.8,293.1,2.3,183.9,2.3z M185.6,236.1c0,1.7-0.4,2.9-1.1,3.6c-0.7,0.7-2,1.1-3.6,1.1h-20.2c-1.7,0-2.9-0.4-3.6-1.1
						c-0.7-0.7-1.1-1.9-1.1-3.6v-25.6c0-1.4-0.4-2.5-1.1-3.3c-0.7-0.8-1.8-1.2-3.2-1.2h-17.4v30.1c0,1.7-0.4,2.9-1.1,3.6
						c-0.7,0.7-2,1.1-3.6,1.1h-20.4c-1.7,0-2.9-0.4-3.6-1.1c-0.7-0.7-1.1-1.9-1.1-3.6v-85.2c0-1.7,0.4-2.9,1.1-3.6
						c0.7-0.7,1.9-1.1,3.6-1.1h20.4c1.7,0,2.9,0.4,3.6,1.1c0.7,0.7,1.1,1.9,1.1,3.6v30.2h5.3l13.5-30.6c0.6-1.6,1.4-2.7,2.5-3.4
						c1-0.7,2.4-1,4.1-1H180c1.5,0,2.5,0.4,3,1.1c0.5,0.7,0.5,1.8-0.1,3.2l-13.4,30.6c4.9,0.3,8.8,2,11.8,5.2
						c2.9,3.2,4.4,7.4,4.4,12.7V236.1z M280.1,214c0,9.1-2.7,15.9-8,20.2c-5.3,4.4-13.4,6.6-24.4,6.6h-44.3c-1.7,0-2.9-0.4-3.6-1.1
						c-0.7-0.7-1.1-1.9-1.1-3.6v-85.2c0-1.7,0.4-2.9,1.1-3.6c0.7-0.7,2-1.1,3.6-1.1h44.3c11,0,19.1,2.2,24.4,6.6
						c5.3,4.4,8,11.1,8,20.2V214z"/>
				</g>
			</g>
		</g>
	</g>
</g>
</svg>
